<?xml version="1.0" ?><!DOCTYPE svg  PUBLIC '-//W3C//DTD SVG 1.1//EN'  'http://www.w3.org/Graphics/SVG/1.1/DTD/svg11.dtd'><svg height="8.4666mm" style="shape-rendering:geometricPrecision; text-rendering:geometricPrecision; image-rendering:optimizeQuality; fill-rule:evenodd; clip-rule:evenodd" version="1.1" viewBox="0 0 846.66 846.66" width="8.4666mm" xml:space="preserve" xmlns="http://www.w3.org/2000/svg" xmlns:xlink="http://www.w3.org/1999/xlink"><defs><style type="text/css">
   <![CDATA[
    .fil0 {fill:black;fill-rule:nonzero}
   ]]>
  </style></defs><g id="Layer_x0020_1"><path class="fil0" d="M251.59 794.39l0 -146.88c0,-27.14 41.26,-27.14 41.26,0l0 146.88 74.21 0 0 -187.63c0,-27.14 41.26,-27.14 41.26,0l0 187.63 74.2 0 0 -187.63c0,-27.14 41.26,-27.14 41.26,0l0 187.63 74.21 0 0 -282.71c0,-27.13 41.26,-27.13 41.26,0l0 282.71 118.49 0 0 -328.46 -20.93 0c-27.14,0 -27.14,-41.26 0,-41.26l20.93 0 0 -52.92 -20.93 0c-27.14,0 -27.14,-41.26 0,-41.26l20.93 0 0 -52.93 -20.93 0c-27.14,0 -27.14,-41.26 0,-41.26l20.93 0 0 -93.35 -394.13 0c1.52,8.84 2.32,17.92 2.32,27.19 0,87.89 -71.25,159.14 -159.14,159.14 -12.82,0 -25.29,-1.52 -37.24,-4.39l0 469.5 82.04 0zm-121.62 -611.92c-13.76,-23.3 21.7,-44.25 35.46,-20.96l14.89 25.14 69.94 -81.59c17.57,-20.54 48.84,6.21 31.26,26.75l-88.01 102.69c-8.81,11.34 -26.55,10.43 -33.99,-2.17l-29.55 -49.86zm76.82 -130.2c-65.1,0 -117.87,52.77 -117.87,117.87 0,65.98 53.68,117.88 117.87,117.88 65.11,0 117.88,-52.78 117.88,-117.88 0,-64.11 -51.78,-117.87 -117.88,-117.87zm143.7 49.42l427.88 0c11.39,0 20.63,9.24 20.63,20.63 0,230.9 0,461.8 0,692.7 0,11.39 -9.24,20.63 -20.63,20.63 -209.81,0 -419.63,0 -629.45,0 -11.39,0 -20.63,-9.24 -20.63,-20.63l0 -506.43c-49.76,-28.27 -80.63,-80.93 -80.63,-138.45 0,-87.88 71.25,-159.13 159.13,-159.13 61.57,0 117.33,35.4 143.7,90.68zm-111.94 512.06c-13.87,23.19 -49.16,2.07 -35.29,-21.12l90.49 -151.43c6.03,-10.08 18.85,-12.91 28.76,-6.74l96.66 54.56 114.99 -176.68 -25.24 4.52c-26.6,4.77 -33.85,-35.68 -7.25,-40.45l71.21 -12.78c9.56,-2.13 19.49,2.86 23.38,12.06l23.85 53.2c11.02,24.69 -26.53,41.45 -37.56,16.76l-8.56 -19.11 -130.88 201.04c-5.85,9.02 -17.79,12.05 -27.29,6.71l-97.05 -54.79 -80.22 134.25z"/></g></svg>
